<svg width="20" height="20" viewBox="0 0 20 20" fill="none" xmlns="http://www.w3.org/2000/svg">
<path d="M15.7107 5.17188H4.03372C3.59175 5.17319 3.16825 5.34935 2.85573 5.66188C2.5432 5.9744 2.36704 6.3979 2.36572 6.83988V13.5129C2.36704 13.9549 2.5432 14.3783 2.85573 14.6909C3.16825 15.0034 3.59175 15.1796 4.03372 15.1809H15.7107C16.1527 15.1796 16.5762 15.0034 16.8887 14.6909C17.2012 14.3783 17.3774 13.9549 17.3787 13.5129V6.83988C17.3774 6.3979 17.2012 5.9744 16.8887 5.66188C16.5762 5.34935 16.1527 5.17319 15.7107 5.17188ZM15.7107 13.5129H4.03372V6.83988H15.7107V13.5129Z" fill="#1A295B"/>
</svg>
