<svg width="20" height="20" viewBox="0 0 20 20" fill="none" xmlns="http://www.w3.org/2000/svg">
<path d="M6.62796 7.67194C7.54917 7.67194 8.29596 6.92515 8.29596 6.00394C8.29596 5.08273 7.54917 4.33594 6.62796 4.33594C5.70675 4.33594 4.95996 5.08273 4.95996 6.00394C4.95996 6.92515 5.70675 7.67194 6.62796 7.67194Z" fill="#1A295B"/>
<path d="M17.471 11.0099V4.19486C17.4714 3.7279 17.3332 3.27134 17.0738 2.88299C16.8145 2.49465 16.4458 2.19201 16.0144 2.01339C15.5829 1.83477 15.1082 1.78822 14.6502 1.87962C14.1923 1.97103 13.7718 2.19629 13.442 2.52686L12.4 3.56986C12.2626 3.52605 12.1193 3.50346 11.975 3.50286C11.6555 3.50324 11.343 3.59596 11.075 3.76986L13.375 6.06986C13.5489 5.80187 13.6416 5.48932 13.642 5.16986C13.6397 5.02639 13.6202 4.88371 13.584 4.74486L14.627 3.70186C14.7239 3.60577 14.847 3.54054 14.9809 3.51442C15.1148 3.4883 15.2535 3.50246 15.3793 3.55512C15.5052 3.60777 15.6126 3.69655 15.688 3.81025C15.7634 3.92394 15.8034 4.05743 15.803 4.19386V11.0079H10.09C9.84121 10.8329 9.6119 10.6317 9.40601 10.4079L8.23801 9.11686C8.07477 8.93992 7.8775 8.79775 7.65801 8.69886C7.3981 8.57263 7.11295 8.50699 6.82401 8.50686C6.32819 8.51003 5.85374 8.70915 5.50416 9.06078C5.15459 9.41242 4.95826 9.88803 4.95801 10.3839V11.0099H2.45801V16.0099C2.45933 16.4518 2.63549 16.8753 2.94801 17.1879C3.26054 17.5004 3.68403 17.6765 4.12601 17.6779C4.1268 17.8988 4.21492 18.1105 4.37115 18.2667C4.52739 18.4229 4.73906 18.5111 4.96001 18.5119H16.637C16.858 18.5111 17.0696 18.4229 17.2259 18.2667C17.3821 18.1105 17.4702 17.8988 17.471 17.6779C17.913 17.6765 18.3365 17.5004 18.649 17.1879C18.9615 16.8753 19.1377 16.4518 19.139 16.0099V11.0099H17.471ZM17.471 16.0099H4.12601V12.6779H17.471V16.0099Z" fill="#1A295B"/>
</svg>
