<svg width="21" height="20" viewBox="0 0 21 20" fill="none" xmlns="http://www.w3.org/2000/svg">
<path d="M17.9101 8.98497V6.66797C17.9083 6.0055 17.6443 5.37068 17.1759 4.90224C16.7074 4.4338 16.0726 4.16982 15.4101 4.16797H12.0771C11.4599 4.16946 10.8655 4.40125 10.4101 4.81797C9.95508 4.40148 9.36103 4.16971 8.74415 4.16797H5.41015C4.74768 4.16982 4.11286 4.4338 3.64442 4.90224C3.17598 5.37068 2.912 6.0055 2.91015 6.66797V8.98497C2.64912 9.21751 2.44003 9.50244 2.29651 9.8212C2.15298 10.14 2.07823 10.4854 2.07715 10.835V15.835H3.74415V14.168H17.0771V15.835H18.7441V10.835C18.7429 10.4853 18.668 10.1398 18.5243 9.82107C18.3806 9.50231 18.1714 9.21742 17.9101 8.98497ZM12.0771 5.83497H15.4101C15.6308 5.83576 15.8422 5.92378 15.9983 6.07982C16.1543 6.23587 16.2424 6.44729 16.2431 6.66797V8.33497H11.2431V6.66797C11.2439 6.44711 11.3321 6.23555 11.4884 6.07947C11.6446 5.9234 11.8563 5.8355 12.0771 5.83497ZM4.57715 6.66797C4.57794 6.44729 4.66596 6.23587 4.822 6.07982C4.97805 5.92378 5.18947 5.83576 5.41015 5.83497H8.74415C8.96483 5.83576 9.17625 5.92378 9.3323 6.07982C9.48834 6.23587 9.57636 6.44729 9.57715 6.66797V8.33497H4.57715V6.66797ZM3.74415 12.501V10.835C3.74494 10.6143 3.83296 10.4029 3.989 10.2468C4.14505 10.0908 4.35647 10.0028 4.57715 10.002H16.2441C16.4648 10.0028 16.6762 10.0908 16.8323 10.2468C16.9883 10.4029 17.0764 10.6143 17.0771 10.835V12.502L3.74415 12.501Z" fill="#1A295B"/>
</svg>
