<svg
              width="12"
              height="18"
              viewBox="0 0 12 18"
              fill="none"
              xmlns="http://www.w3.org/2000/svg"
            >
              <path
                d="M5.56336 0.281251C4.08749 0.282312 2.67244 0.856869 1.62922 1.87864C0.586009 2.90041 -3.97654e-07 4.28578 0 5.73025C0 11.1793 5.56745 17.7173 5.56745 17.7173C5.56745 17.7173 11.1349 11.1793 11.1349 5.73025C11.1349 5.01434 10.9908 4.30545 10.7107 3.64408C10.4307 2.98272 10.0202 2.38185 9.50279 1.87581C8.98537 1.36977 8.37114 0.968486 7.69519 0.694883C7.01925 0.421281 6.29484 0.280726 5.56336 0.281251ZM5.56336 9.06725C4.88902 9.06725 4.22982 8.87154 3.66913 8.50487C3.10843 8.13819 2.67142 7.61702 2.41336 7.00727C2.1553 6.39751 2.08778 5.72655 2.21934 5.07924C2.3509 4.43192 2.67562 3.83732 3.15246 3.37064C3.62929 2.90395 4.23681 2.58613 4.8982 2.45737C5.55958 2.32861 6.24513 2.3947 6.86814 2.64727C7.49115 2.89984 8.02365 3.32755 8.39829 3.87631C8.77294 4.42508 8.9729 5.07026 8.9729 5.73025C8.9729 6.61528 8.61369 7.46406 7.97427 8.08987C7.33486 8.71568 6.46763 9.06725 5.56336 9.06725ZM3.40954 5.73025C3.40954 5.31261 3.53612 4.90435 3.77326 4.55713C4.01039 4.20991 4.34743 3.93934 4.74173 3.77966C5.13603 3.61997 5.56987 3.57834 5.98835 3.66004C6.40683 3.74173 6.79114 3.94308 7.09267 4.23861C7.39419 4.53414 7.59937 4.91057 7.68225 5.32026C7.76513 5.72995 7.72197 6.1545 7.55825 6.54018C7.39453 6.92586 7.1176 7.25534 6.7625 7.48694C6.4074 7.71854 5.99009 7.84185 5.56336 7.84125C4.99185 7.84046 4.44403 7.6177 4.04019 7.22189C3.63636 6.82609 3.40954 6.2896 3.40954 5.73025Z"
                fill="#595959"
              />
            </svg>