<svg width="141" height="38" viewBox="0 0 141 38" fill="none" xmlns="http://www.w3.org/2000/svg">
<path d="M46.2393 21.6214H49.7255C50.823 21.6214 51.8559 21.4395 52.8302 21.0756C53.7985 20.7117 54.6437 20.1718 55.3656 19.4558C56.0874 18.7397 56.6567 17.8594 57.0734 16.8147C57.4901 15.77 57.7014 14.561 57.7014 13.1935C57.7014 11.9904 57.5019 10.8812 57.1145 9.87756C56.7213 8.87396 56.1755 8.01122 55.4653 7.28346C54.7611 6.55571 53.9218 5.99228 52.9417 5.59319C51.9674 5.1941 50.8993 4.98868 49.7431 4.98868H46.2451V21.6155L46.2393 21.6214ZM42.9585 3.55078H49.4555C51.4568 3.55078 53.1764 3.73859 54.6143 4.10834C56.0522 4.47808 57.2554 5.07672 58.2179 5.90425C59.3154 6.84329 60.1429 7.92318 60.6946 9.13806C61.2463 10.3529 61.528 11.6793 61.528 13.1231C61.528 14.5669 61.2815 15.7818 60.7826 16.9908C60.2896 18.1939 59.5619 19.2503 58.6052 20.1424C57.6486 21.0404 56.4689 21.7447 55.0604 22.267C53.6518 22.7893 52.0437 23.0476 50.2302 23.0476H42.9526V3.55665L42.9585 3.55078Z" fill="#CC9C4A"/>
<path d="M68.6118 12.9059H70.5075C71.2412 12.9059 71.922 12.8062 72.5441 12.6125C73.1662 12.4188 73.7061 12.143 74.1639 11.785C74.6217 11.427 74.9738 10.9927 75.2321 10.4821C75.4844 9.97145 75.6136 9.40216 75.6136 8.76244C75.6136 8.17554 75.5138 7.63559 75.3142 7.1426C75.1147 6.65547 74.8271 6.2329 74.4632 5.88663C74.0935 5.54036 73.6592 5.26452 73.1544 5.07084C72.6497 4.87716 72.098 4.77739 71.4994 4.77739H68.6177V12.9059H68.6118ZM65.3311 3.55664H72.0922C73.2601 3.55664 74.2813 3.67989 75.1616 3.93226C76.042 4.18462 76.7815 4.53089 77.3684 4.98281C77.9553 5.43472 78.4013 5.9688 78.7006 6.59091C79 7.21302 79.1467 7.89383 79.1467 8.62745C79.1467 9.23783 79.0293 9.80125 78.8004 10.3353C78.5715 10.8635 78.2487 11.3448 77.832 11.7674C77.4153 12.1958 76.9106 12.5597 76.3237 12.8707C75.7368 13.1818 75.0912 13.4224 74.3811 13.5985L81.4825 23.0534H77.6736L70.8949 13.8919H68.6001V23.0534H65.3193V3.55664H65.3311Z" fill="#CC9C4A"/>
<path d="M84.1587 3.55664H87.4395V16.2161C87.4395 17.0495 87.5803 17.83 87.8679 18.5637C88.1496 19.2914 88.5604 19.9311 89.0886 20.4828C89.6169 21.0345 90.2566 21.4629 91.0078 21.7857C91.759 22.1027 92.5924 22.2611 93.5139 22.2611C94.4353 22.2611 95.2804 22.1027 96.0258 21.7857C96.7712 21.4688 97.405 21.0345 97.9273 20.4828C98.4497 19.9311 98.8546 19.2973 99.1305 18.5637C99.4122 17.8359 99.5472 17.0553 99.5472 16.2161V3.55664H100.991V16.2161C100.991 17.2138 100.827 18.1587 100.504 19.039C100.181 19.9194 99.6704 20.6941 98.9838 21.3573C98.2912 22.0205 97.4109 22.5428 96.331 22.9302C95.2511 23.3175 93.9599 23.5112 92.4516 23.5112C91.1076 23.5112 89.922 23.3175 88.8891 22.9302C87.8562 22.5428 86.9875 22.0146 86.2891 21.3514C85.5907 20.6824 85.0566 19.9018 84.7045 19.0038C84.3465 18.1059 84.1704 17.1492 84.1704 16.128V3.55664H84.1587Z" fill="#CC9C4A"/>
<path d="M108.093 13.3762C108.093 14.7378 108.298 15.9644 108.709 17.0443C109.12 18.1242 109.689 19.0457 110.405 19.791C111.127 20.5423 111.978 21.1115 112.958 21.5106C113.938 21.9097 115.001 22.1093 116.151 22.1093C116.838 22.1093 117.501 21.9743 118.135 21.7102C118.774 21.4461 119.361 21.0998 119.907 20.6714C120.453 20.2429 120.94 19.7617 121.368 19.2276C121.803 18.6935 122.155 18.1536 122.425 17.6019L123.804 18.4822C123.399 19.1396 122.93 19.7676 122.378 20.3721C121.826 20.9766 121.192 21.5106 120.476 21.9743C119.754 22.4379 118.944 22.8077 118.035 23.0835C117.125 23.3594 116.116 23.4944 115.001 23.4944C113.381 23.4944 111.913 23.2244 110.599 22.6844C109.278 22.1445 108.151 21.4167 107.212 20.4953C106.273 19.5739 105.546 18.4998 105.029 17.2674C104.513 16.0349 104.26 14.7378 104.26 13.3645C104.26 12.4548 104.378 11.5627 104.612 10.6941C104.847 9.82548 105.188 9.01555 105.634 8.25259C106.08 7.49549 106.625 6.79708 107.265 6.16322C107.905 5.52937 108.633 4.98943 109.443 4.53164C110.252 4.07386 111.139 3.72172 112.095 3.47523C113.058 3.22286 114.079 3.09961 115.171 3.09961C116.262 3.09961 117.166 3.24047 118.047 3.51631C118.921 3.79802 119.725 4.16777 120.441 4.62555C121.163 5.0892 121.803 5.61741 122.366 6.22191C122.93 6.82642 123.411 7.4544 123.816 8.11173L122.39 9.05077C121.574 7.47201 120.664 6.31582 119.655 5.58806C118.645 4.86031 117.483 4.49056 116.168 4.49056C115.042 4.49056 113.985 4.69598 113.005 5.10681C112.025 5.51763 111.168 6.10453 110.44 6.87337C109.713 7.63634 109.137 8.56951 108.721 9.66114C108.304 10.7528 108.099 11.9853 108.099 13.3586" fill="#CC9C4A"/>
<path d="M127.448 3.55664V23.0476H141V21.7857H130.723V13.0527H137.602V11.7908H130.723V4.81847H141V3.55664H127.448Z" fill="#CC9C4A"/>
<path d="M35.1881 14.2395C34.6598 13.0891 33.8382 11.9564 32.7524 10.8707L32.2242 10.3425C32.1479 9.49732 31.9542 8.6874 31.6373 7.92443C31.2265 6.92084 30.6161 6.04049 29.8238 5.29512C29.0256 4.54976 28.0279 3.95112 26.8482 3.51095C25.6627 3.07078 24.2835 2.85362 22.7458 2.85362H22.0004C21.349 2.30781 20.6388 1.8735 19.8759 1.55657C18.884 1.14575 17.8276 0.952068 16.7418 0.981413C15.6502 1.01663 14.5175 1.29834 13.3789 1.82655C12.2285 2.35476 11.0958 3.17642 10.0101 4.26218L9.49947 4.77278C8.49 4.83147 7.53922 5.04863 6.67061 5.44185C5.66115 5.89963 4.75145 6.59804 3.96501 7.5136C3.2842 8.30592 2.78534 9.31538 2.47428 10.5185C2.15736 11.7451 1.99889 13.2359 1.99889 14.9496V14.9907C1.32396 15.7478 0.807488 16.5753 0.472955 17.4615C0.0856013 18.5004 -0.0669925 19.6389 0.0269114 20.8421C0.109077 21.8868 0.467086 22.9549 1.09507 24.0231C1.73479 25.1147 2.6797 26.2826 3.88871 27.4917L3.91805 27.521C3.97674 28.5305 4.1939 29.4812 4.58712 30.3499C5.0449 31.3593 5.74331 32.269 6.65887 33.0555C7.45119 33.7363 8.46066 34.2351 9.6638 34.5462C10.8904 34.8631 12.3811 35.0216 14.0949 35.0216H14.136C14.8931 35.6965 15.7206 36.213 16.6068 36.5475C17.6456 36.9349 18.7842 37.0875 19.9874 36.9936C21.032 36.9114 22.1002 36.5534 23.1684 35.9254C24.26 35.2857 25.4279 34.3408 26.6369 33.1318L26.678 33.0907C27.5231 33.0144 28.3331 32.8207 29.096 32.5038C30.0996 32.0929 30.98 31.4826 31.7253 30.6903C32.4707 29.8921 33.0693 28.8943 33.5095 27.7147C33.9497 26.5291 34.1669 25.1499 34.1669 23.6123V22.8669C34.7127 22.2154 35.147 21.5053 35.4639 20.7423C35.8806 19.7446 36.0743 18.6882 36.0391 17.5965C36.0038 16.5049 35.7221 15.3722 35.1939 14.2336L35.1881 14.2395ZM25.1579 3.83374C26.0559 4.16828 26.8541 4.67888 27.5231 5.34208C28.1922 6.00527 28.7263 6.82693 29.1078 7.78945C29.1195 7.81879 29.1313 7.85401 29.143 7.88922L29.1254 7.90683L29.1665 7.94791C29.5127 8.86934 29.6888 9.93163 29.6888 11.1172C29.6888 12.2147 29.5069 13.2417 29.143 14.169C28.7791 15.0963 28.2685 15.9063 27.6171 16.5753C26.9656 17.2444 26.1733 17.7785 25.2753 18.1482C24.3774 18.518 23.3796 18.7058 22.3232 18.7058H22.1941C22.153 18.2773 22.0767 17.8606 21.9183 17.4733C21.7305 17.0214 21.4546 16.6223 21.1083 16.2701C22.3056 15.067 23.2388 13.9108 23.8726 12.8309C24.5006 11.7628 24.8586 10.6946 24.9408 9.64992C25.0347 8.44677 24.8821 7.30819 24.4947 6.26938C24.1074 5.23057 23.4794 4.27392 22.6284 3.42291C22.5991 3.39357 22.5756 3.37596 22.5462 3.34662C23.4618 3.37009 24.348 3.53443 25.1638 3.83961L25.1579 3.83374ZM17.1585 22.9491H15.3978V15.1257H17.1526C17.6632 15.1257 18.1562 15.2137 18.6081 15.3839C19.0659 15.5541 19.4709 15.8124 19.8113 16.1528C20.1517 16.4873 20.4217 16.9099 20.6153 17.397C20.809 17.8841 20.9088 18.4534 20.9088 19.0873C20.9088 19.6448 20.8149 20.1672 20.6329 20.6425C20.451 21.1121 20.1869 21.5288 19.8524 21.8692C19.5178 22.2096 19.1187 22.4795 18.661 22.6673C18.2032 22.8552 17.6985 22.9491 17.1585 22.9491ZM12.3988 3.25271C13.2732 2.85362 14.1947 2.64821 15.1337 2.64821C16.0727 2.64821 17.0353 2.84775 17.986 3.25858C18.0154 3.27032 18.0447 3.28793 18.0799 3.30553V3.33488H18.1328C19.0307 3.74571 19.9052 4.36782 20.7445 5.20709C21.525 5.98767 22.1178 6.83867 22.5169 7.74836C22.916 8.65806 23.1273 9.5971 23.139 10.5303C23.1507 11.4693 22.9688 12.3966 22.5932 13.3004C22.2176 14.1984 21.6483 15.0318 20.8971 15.783L20.7327 15.9473C20.3688 15.6598 19.958 15.4074 19.465 15.2255C19.1129 15.0963 18.7314 15.0083 18.3147 14.9555V14.2806C18.3147 12.7429 18.0917 11.3637 17.6574 10.1781C17.2231 8.99846 16.6244 7.99486 15.8732 7.20255C15.1278 6.41023 14.2416 5.79986 13.2439 5.38903C12.2931 5.00167 11.266 4.79626 10.192 4.77278C10.8611 4.13893 11.6006 3.62833 12.3988 3.26445V3.25271ZM3.03771 11.7569C3.40745 10.8589 3.93566 10.0666 4.6106 9.41516C5.27966 8.7637 6.08958 8.24723 7.01688 7.88922L7.04036 7.9127L7.08144 7.87161C7.99114 7.52534 8.98886 7.34927 10.0688 7.34927C11.3189 7.34927 12.434 7.54295 13.3906 7.92443C14.3531 8.30592 15.1748 8.84 15.838 9.50906C16.5012 10.1781 17.0118 10.9704 17.3463 11.8743C17.6808 12.7664 17.8452 13.7289 17.8452 14.7325V14.9144C17.6926 14.9027 17.54 14.8968 17.3815 14.8968H14.3296V14.9144C13.4317 14.1104 12.5103 13.4765 11.5771 13.0422C10.4326 12.514 9.30579 12.2323 8.21416 12.1971C7.12839 12.1618 6.06611 12.3555 5.06838 12.7722C4.12934 13.1654 3.26073 13.7465 2.49189 14.486C2.51537 13.5117 2.6973 12.5962 3.03771 11.7628V11.7569ZM4.51082 23.7766C4.12347 24.7215 3.92392 25.7427 3.90045 26.8109C3.23138 26.1066 2.70904 25.3319 2.36277 24.4985C1.98716 23.6005 1.80522 22.6673 1.81695 21.7283C1.82869 20.7951 2.03998 19.8561 2.43907 18.9464H2.48015V18.8642C2.87924 17.9898 3.4544 17.1622 4.2115 16.411C5.09185 15.5306 6.01915 14.8733 6.96993 14.4684C7.92071 14.0575 8.87735 13.8521 9.82226 13.858C10.7672 13.858 11.6827 14.0634 12.5572 14.4625C13.1911 14.7501 13.778 15.1374 14.3296 15.5952V18.7116H13.4082C11.8705 18.7116 10.4913 18.9347 9.30579 19.369C8.12612 19.8033 7.12253 20.4019 6.33021 21.1531C5.5379 21.8985 4.92752 22.7847 4.51669 23.7825L4.51082 23.7766ZM10.8904 33.9828C9.99246 33.613 9.20015 33.0848 8.54869 32.4099C7.89723 31.7408 7.38076 30.9309 7.02275 30.0036L7.0521 29.9742L6.99341 29.9156C6.65301 29.0176 6.4828 28.0199 6.4828 26.9576C6.4828 25.7075 6.67648 24.5924 7.05797 23.6357C7.43945 22.6732 7.97353 21.8516 8.64259 21.1884C9.31166 20.5252 10.104 20.0146 11.0078 19.68C11.8999 19.3455 12.8624 19.1812 13.866 19.1812H14.3355V22.3798C13.3906 23.3775 12.657 24.4046 12.1757 25.4492C11.6475 26.5937 11.3658 27.7205 11.3306 28.8122C11.2954 29.8979 11.4891 30.9602 11.9058 31.958C12.299 32.897 12.88 33.7656 13.6195 34.5345C12.6452 34.511 11.7297 34.329 10.8963 33.9886L10.8904 33.9828ZM23.632 34.6577C22.734 35.0333 21.8009 35.2153 20.8618 35.2035C19.9287 35.1918 18.9896 34.9805 18.0799 34.5814V34.5403H17.9978C17.1233 34.1412 16.2958 33.5661 15.5445 32.809C14.6642 31.9286 14.0069 31.0013 13.6019 30.0505C13.1911 29.0998 12.9857 28.1431 12.9915 27.1982C12.9915 26.2533 13.1969 25.3377 13.596 24.4633C13.8014 24.0172 14.0538 23.5946 14.3473 23.1897H17.0353C17.317 23.1897 17.5869 23.1779 17.8452 23.1603C17.8569 24.7743 18.0154 26.1887 18.3147 27.3567C18.6258 28.5539 19.1246 29.5693 19.8054 30.3616C20.5919 31.2772 21.5016 31.9756 22.511 32.4334C23.5205 32.8911 24.6415 33.1259 25.8446 33.1259C25.874 33.1259 25.9033 33.1259 25.9385 33.1259C25.2342 33.795 24.4595 34.3114 23.632 34.6577ZM33.1867 26.0185C32.8522 26.9165 32.3416 27.7147 31.6784 28.3837C31.0152 29.0528 30.1935 29.5869 29.231 29.9684C29.2017 29.9801 29.1665 29.9918 29.1313 30.0036L29.1019 29.9742L29.0432 30.0329C28.1277 30.3733 27.0712 30.5494 25.9033 30.5494C24.8058 30.5494 23.7787 30.3675 22.8514 30.0036C21.9241 29.6397 21.1142 29.1291 20.4451 28.4776C19.7761 27.8262 19.242 27.0339 18.8723 26.1359C18.5025 25.238 18.3147 24.2402 18.3147 23.1838V23.131C18.661 23.0899 18.9838 23.0371 19.2772 22.9608C19.8876 22.8023 20.4041 22.55 20.809 22.2037C20.8442 22.1744 20.8677 22.145 20.9029 22.1157C22.0532 23.2425 23.1566 24.1287 24.1954 24.7391C25.2636 25.3671 26.3317 25.7251 27.3764 25.8073C28.5796 25.9012 29.7182 25.7486 30.757 25.3612C31.7958 24.9739 32.7524 24.3459 33.6034 23.4949C33.6328 23.4655 33.6504 23.4421 33.6797 23.4127C33.6562 24.3283 33.4919 25.2145 33.1867 26.0303V26.0185ZM33.7619 18.8466C33.7502 18.876 33.7325 18.9053 33.7149 18.9405H33.6856V18.9934C33.2748 19.8913 32.6526 20.7658 31.8134 21.6051C31.0328 22.3856 30.1818 22.9784 29.2721 23.3775C28.3624 23.7766 27.4234 23.9879 26.4902 23.9996C25.5512 24.0113 24.6239 23.8294 23.72 23.4538C22.8221 23.0782 21.9887 22.5089 21.2375 21.7577C21.4957 21.4642 21.707 21.1473 21.8654 20.8069C22.0943 20.308 22.2058 19.7622 22.2176 19.1753C23.8668 19.1636 25.3047 19.011 26.4961 18.6999C27.6933 18.3888 28.7087 17.89 29.501 17.2092C30.4166 16.4227 31.115 15.513 31.5728 14.5036C32.0305 13.4941 32.2653 12.3731 32.2653 11.17C32.2653 11.1348 32.2653 11.0937 32.2653 11.0585C32.8991 11.7275 33.4039 12.4612 33.7678 13.2593C34.1669 14.1338 34.3723 15.0553 34.3723 15.9943C34.3723 16.9333 34.1727 17.8959 33.7619 18.8466Z" fill="#CC9C4A"/>
<path d="M42.9702 34.9577V29.8105H46.1512V30.3153H43.5865V32.1112H45.9341V32.6101H43.5865V34.4471H46.1512V34.9518H42.9702V34.9577Z" fill="#CC9C4A"/>
<path d="M51.2218 35.0458C50.8462 35.0458 50.5175 34.9754 50.2358 34.8404C49.9541 34.7054 49.7428 34.5118 49.5902 34.2653C49.4376 34.0188 49.3613 33.737 49.3613 33.4143H50.0069C50.0069 33.6138 50.0539 33.8016 50.1478 33.9718C50.2417 34.142 50.3767 34.277 50.5586 34.3768C50.7347 34.4765 50.9577 34.5294 51.2218 34.5294C51.5681 34.5294 51.838 34.4472 52.0317 34.277C52.2254 34.1127 52.3193 33.9014 52.3193 33.6549C52.3193 33.4495 52.2723 33.2851 52.1843 33.156C52.0963 33.0328 51.9789 32.9271 51.8263 32.8508C51.6796 32.7745 51.5035 32.7041 51.3098 32.6454C51.1162 32.5867 50.9166 32.5222 50.7053 32.4459C50.3062 32.3109 50.0128 32.1407 49.825 31.9353C49.6313 31.7299 49.5374 31.4657 49.5374 31.1371C49.5374 30.8612 49.5961 30.6206 49.7311 30.4035C49.8661 30.1863 50.048 30.022 50.2945 29.9046C50.5351 29.7813 50.8227 29.7227 51.1572 29.7227C51.4918 29.7227 51.7735 29.7813 52.0141 29.9046C52.2547 30.0278 52.4425 30.198 52.5775 30.4093C52.7125 30.6265 52.7829 30.873 52.7888 31.143H52.1432C52.1432 31.0021 52.108 30.8612 52.0317 30.7204C51.9554 30.5795 51.8439 30.468 51.6972 30.38C51.5505 30.2919 51.3627 30.245 51.1338 30.245C50.8521 30.245 50.6232 30.3096 50.4471 30.4563C50.271 30.603 50.1771 30.8084 50.1771 31.0667C50.1771 31.2897 50.2417 31.454 50.3649 31.5714C50.4882 31.6888 50.6642 31.7885 50.8931 31.8648C51.1162 31.9411 51.3803 32.0292 51.6737 32.1231C51.9202 32.2111 52.1374 32.3168 52.3369 32.4341C52.5365 32.5515 52.689 32.7041 52.7947 32.8919C52.9062 33.0797 52.959 33.3145 52.959 33.6021C52.959 33.8486 52.8945 34.0774 52.7653 34.2946C52.6362 34.5118 52.4484 34.6878 52.1902 34.8287C51.9319 34.9695 51.6092 35.0341 51.2218 35.0341V35.0458Z" fill="#CC9C4A"/>
<path d="M57.3726 34.9576V30.3211H55.835V29.8164H59.5266V30.3211H57.9889V34.9576H57.3726Z" fill="#CC9C4A"/>
<path d="M61.8447 34.9577L63.7404 29.8105H64.3919L66.2817 34.9577H65.6302L65.1607 33.6371H62.9716L62.4962 34.9577H61.8506H61.8447ZM63.1535 33.1324H64.9788L64.0691 30.5911L63.1594 33.1324H63.1535Z" fill="#CC9C4A"/>
<path d="M69.5098 34.9577V29.8105H71.3174C71.6813 29.8105 71.9806 29.8692 72.2154 29.9807C72.456 30.0981 72.6321 30.2507 72.7495 30.4503C72.8668 30.6498 72.9255 30.8728 72.9255 31.1135C72.9255 31.448 72.8375 31.7062 72.6556 31.8999C72.4795 32.0936 72.2623 32.2227 72.01 32.299C72.2036 32.3342 72.3738 32.4105 72.5323 32.5279C72.6908 32.6453 72.814 32.792 72.9021 32.9681C72.9901 33.1441 73.037 33.3378 73.037 33.5491C73.037 33.8073 72.9725 34.048 72.8434 34.2592C72.7142 34.4705 72.5264 34.6407 72.2799 34.764C72.0334 34.8872 71.7283 34.9518 71.3702 34.9518H69.5039L69.5098 34.9577ZM70.126 32.0642H71.2705C71.5991 32.0642 71.8515 31.9879 72.0276 31.8354C72.2036 31.6828 72.2917 31.4656 72.2917 31.1898C72.2917 30.9315 72.2036 30.7202 72.0334 30.5676C71.8574 30.4092 71.5991 30.3329 71.2529 30.3329H70.126V32.0701V32.0642ZM70.126 34.4471H71.3116C71.6637 34.4471 71.9337 34.3649 72.1273 34.2006C72.321 34.0362 72.4149 33.8073 72.4149 33.5139C72.4149 33.2204 72.3152 32.9915 72.1156 32.8213C71.9161 32.6453 71.6402 32.5631 71.2998 32.5631H70.1319V34.4529L70.126 34.4471Z" fill="#CC9C4A"/>
<path d="M76.394 34.9577V29.8105H77.0103V34.4647H79.4048V34.9577H76.394Z" fill="#CC9C4A"/>
<path d="M82.7148 34.9577V29.8105H83.3311V34.9577H82.7148Z" fill="#CC9C4A"/>
<path d="M88.525 35.0458C88.1494 35.0458 87.8207 34.9754 87.539 34.8404C87.2573 34.7054 87.046 34.5118 86.8935 34.2653C86.7409 34.0188 86.6646 33.737 86.6646 33.4143H87.3101C87.3101 33.6138 87.3571 33.8016 87.451 33.9718C87.5449 34.142 87.6799 34.277 87.856 34.3768C88.032 34.4765 88.2551 34.5294 88.5192 34.5294C88.8654 34.5294 89.1354 34.4472 89.3291 34.277C89.5228 34.1127 89.6167 33.9014 89.6167 33.6549C89.6167 33.4495 89.5697 33.2851 89.4817 33.156C89.3936 33.0269 89.2763 32.9271 89.1237 32.8508C88.9711 32.7745 88.8009 32.7041 88.6072 32.6454C88.4135 32.5867 88.214 32.5222 88.0027 32.4459C87.6036 32.3109 87.3101 32.1407 87.1223 31.9353C86.9287 31.7299 86.8348 31.4657 86.8348 31.1371C86.8348 30.8612 86.8934 30.6206 87.0284 30.4035C87.1576 30.1922 87.3454 30.022 87.5919 29.9046C87.8325 29.7813 88.1201 29.7227 88.4546 29.7227C88.7891 29.7227 89.0708 29.7813 89.3115 29.9046C89.5521 30.0278 89.7399 30.198 89.8749 30.4093C90.0099 30.6206 90.0803 30.873 90.0862 31.143H89.4406C89.4406 31.0021 89.4054 30.8612 89.3291 30.7204C89.2528 30.5795 89.1413 30.468 88.9945 30.38C88.8478 30.2919 88.66 30.245 88.4311 30.245C88.1494 30.245 87.9205 30.3096 87.7445 30.4563C87.5684 30.603 87.4745 30.8084 87.4745 31.0667C87.4745 31.2897 87.539 31.454 87.6623 31.5714C87.7855 31.6888 87.9616 31.7885 88.1905 31.8648C88.4135 31.9411 88.6776 32.0292 88.9711 32.1231C89.2176 32.2111 89.4347 32.3168 89.6343 32.4341C89.8338 32.5515 89.9805 32.7041 90.0921 32.8919C90.2036 33.0797 90.2564 33.3145 90.2564 33.6021C90.2564 33.8486 90.1918 34.0774 90.0627 34.2946C89.9336 34.5118 89.7458 34.6878 89.4875 34.8287C89.2293 34.9637 88.9065 35.0341 88.5192 35.0341L88.525 35.0458Z" fill="#CC9C4A"/>
<path d="M93.5962 34.9577V29.8105H94.2124V32.0818H96.8828V29.8105H97.4991V34.9577H96.8828V32.5925H94.2124V34.9577H93.5962Z" fill="#CC9C4A"/>
<path d="M101.05 34.9577V29.8105H104.231V30.3153H101.666V32.1112H104.014V32.6101H101.666V34.4471H104.231V34.9518H101.05V34.9577Z" fill="#CC9C4A"/>
<path d="M107.658 34.9577V29.8105H109.237C110.141 29.8105 110.81 30.0394 111.238 30.5031C111.667 30.9667 111.884 31.5947 111.884 32.3988C111.884 33.2028 111.667 33.8132 111.238 34.271C110.81 34.7288 110.141 34.9577 109.237 34.9577H107.658ZM108.274 34.4412H109.225C109.724 34.4412 110.123 34.359 110.423 34.1947C110.716 34.0304 110.933 33.7956 111.056 33.4904C111.185 33.1852 111.25 32.8213 111.25 32.3988C111.25 31.9762 111.185 31.5947 111.056 31.2895C110.927 30.9785 110.716 30.7437 110.423 30.5794C110.129 30.4151 109.73 30.327 109.225 30.327H108.274V34.4412Z" fill="#CC9C4A"/>
<path d="M120.153 34.9577V30.5031L119.32 30.685V30.2566L120.359 29.8105H120.775V34.9577H120.153Z" fill="#CC9C4A"/>
<path d="M126.028 35.0458C125.688 35.0458 125.389 34.9813 125.119 34.858C124.849 34.7348 124.637 34.5587 124.485 34.3357C124.332 34.1127 124.256 33.8544 124.256 33.561C124.256 33.2499 124.35 32.9682 124.532 32.7158C124.714 32.4635 124.96 32.2991 125.265 32.217C124.984 32.1231 124.772 31.9763 124.62 31.7709C124.467 31.5655 124.391 31.3425 124.391 31.096C124.391 30.8495 124.455 30.6147 124.59 30.4093C124.725 30.198 124.913 30.0337 125.154 29.9105C125.4 29.7872 125.694 29.7285 126.034 29.7285C126.375 29.7285 126.668 29.7872 126.915 29.9105C127.161 30.0337 127.349 30.198 127.478 30.4093C127.613 30.6147 127.677 30.8495 127.677 31.096C127.677 31.3425 127.601 31.5596 127.449 31.7709C127.296 31.9822 127.079 32.1289 126.803 32.2228C127.108 32.305 127.349 32.4752 127.537 32.7217C127.719 32.9741 127.812 33.2558 127.812 33.5668C127.812 33.8603 127.736 34.1185 127.584 34.3415C127.431 34.5646 127.22 34.7406 126.95 34.8639C126.68 34.9871 126.375 35.0517 126.04 35.0517L126.028 35.0458ZM126.028 34.5C126.416 34.5 126.703 34.412 126.897 34.23C127.091 34.054 127.19 33.8133 127.19 33.5199C127.19 33.1854 127.085 32.933 126.873 32.7628C126.662 32.5926 126.38 32.5045 126.028 32.5045C125.676 32.5045 125.394 32.5926 125.183 32.7628C124.972 32.933 124.866 33.1854 124.866 33.5199C124.866 33.8133 124.966 34.0481 125.16 34.23C125.353 34.412 125.641 34.5 126.028 34.5ZM126.028 31.9939C126.339 31.9939 126.592 31.9177 126.774 31.7533C126.956 31.5949 127.05 31.3836 127.05 31.1253C127.05 30.8378 126.961 30.6206 126.78 30.4739C126.598 30.3272 126.345 30.2509 126.028 30.2509C125.711 30.2509 125.459 30.3213 125.283 30.4739C125.107 30.6206 125.013 30.8378 125.013 31.1253C125.013 31.3836 125.101 31.5949 125.283 31.7533C125.465 31.9118 125.711 31.9939 126.028 31.9939Z" fill="#CC9C4A"/>
<path d="M131.07 34.9578V34.5235C131.416 34.2476 131.745 33.9718 132.056 33.6901C132.367 33.4084 132.643 33.1325 132.889 32.8567C133.136 32.5808 133.324 32.3109 133.464 32.0468C133.605 31.7827 133.676 31.5303 133.676 31.2838C133.676 31.1019 133.646 30.9317 133.582 30.7791C133.523 30.6206 133.423 30.4974 133.282 30.4035C133.147 30.3095 132.96 30.2626 132.725 30.2626C132.49 30.2626 132.308 30.3154 132.161 30.4152C132.015 30.515 131.897 30.6499 131.821 30.8143C131.745 30.9786 131.71 31.1606 131.71 31.3484H131.117C131.117 31.008 131.187 30.7204 131.328 30.4797C131.469 30.2391 131.663 30.0513 131.909 29.9222C132.156 29.7931 132.431 29.7285 132.742 29.7285C133.2 29.7285 133.57 29.8576 133.863 30.1159C134.157 30.3741 134.304 30.7556 134.304 31.2662C134.304 31.5714 134.227 31.8707 134.075 32.1641C133.922 32.4576 133.728 32.7452 133.494 33.0269C133.259 33.3027 133.007 33.561 132.742 33.8016C132.478 34.0422 132.226 34.2594 131.997 34.4472H134.48V34.9637H131.082L131.07 34.9578Z" fill="#CC9C4A"/>
<path d="M137.59 34.9578V34.5235C137.936 34.2476 138.265 33.9718 138.576 33.6901C138.887 33.4084 139.163 33.1325 139.409 32.8567C139.656 32.5808 139.844 32.3109 139.984 32.0468C140.125 31.7827 140.196 31.5303 140.196 31.2838C140.196 31.1019 140.166 30.9317 140.102 30.7791C140.043 30.6206 139.943 30.4974 139.802 30.4035C139.667 30.3095 139.48 30.2626 139.245 30.2626C139.01 30.2626 138.828 30.3154 138.681 30.4152C138.535 30.515 138.417 30.6499 138.341 30.8143C138.265 30.9786 138.23 31.1606 138.23 31.3484H137.637C137.637 31.008 137.707 30.7204 137.848 30.4797C137.989 30.2391 138.183 30.0513 138.429 29.9222C138.676 29.7931 138.951 29.7285 139.263 29.7285C139.72 29.7285 140.09 29.8576 140.383 30.1159C140.677 30.3741 140.824 30.7556 140.824 31.2662C140.824 31.5714 140.747 31.8707 140.595 32.1641C140.442 32.4576 140.249 32.7452 140.014 33.0269C139.779 33.3027 139.527 33.561 139.263 33.8016C138.998 34.0422 138.746 34.2594 138.517 34.4472H141V34.9637H137.602L137.59 34.9578Z" fill="#CC9C4A"/>
</svg>
