<svg width="44" height="44" viewBox="0 0 44 44" fill="none" xmlns="http://www.w3.org/2000/svg">
<rect x="0.44" y="0.44" width="43.12" height="43.12" rx="21.56" fill="white"/>
<rect x="0.44" y="0.44" width="43.12" height="43.12" rx="21.56" stroke="#595959" stroke-width="0.88"/>
<g clip-path="url(#clip0_5336_4378)">
<path d="M22.0004 30.7987C22.9684 30.7987 23.7604 30.0067 23.7604 29.0387H20.2404C20.2404 30.0067 21.0324 30.7987 22.0004 30.7987ZM27.2804 25.5187V21.1187C27.2804 18.4171 25.846 16.1555 23.3204 15.5571V13.6387H20.6804V15.5571C18.1636 16.1555 16.7204 18.4083 16.7204 21.1187V25.5187L14.9604 27.2787V28.1587H29.0404V27.2787L27.2804 25.5187ZM25.5204 26.3987H18.4804V21.1187C18.4804 18.9363 19.8092 17.1587 22.0004 17.1587C24.1916 17.1587 25.5204 18.9363 25.5204 21.1187V26.3987Z" fill="#595959"/>
</g>
<defs>
<clipPath id="clip0_5336_4378">
<rect width="21.12" height="21.12" fill="white" transform="translate(11.4404 11.4395)"/>
</clipPath>
</defs>
</svg>
