<svg width="18" height="18" viewBox="0 0 18 18" fill="none" xmlns="http://www.w3.org/2000/svg">
<path d="M12.5 11.2559H11.71L11.43 10.9859C12.41 9.84586 13 8.36586 13 6.75586C13 3.16586 10.09 0.255859 6.5 0.255859C2.91 0.255859 0 3.16586 0 6.75586C0 10.3459 2.91 13.2559 6.5 13.2559C8.11 13.2559 9.59 12.6659 10.73 11.6859L11 11.9659V12.7559L16 17.7459L17.49 16.2559L12.5 11.2559ZM6.5 11.2559C4.01 11.2559 2 9.24586 2 6.75586C2 4.26586 4.01 2.25586 6.5 2.25586C8.99 2.25586 11 4.26586 11 6.75586C11 9.24586 8.99 11.2559 6.5 11.2559Z" fill="#868686"/>
</svg>
