<svg width="50" height="50" viewBox="0 0 50 50" fill="none" xmlns="http://www.w3.org/2000/svg">
<g filter="url(#filter0_d_5429_23871)">
<path d="M44 22C44 11.5066 35.4934 3 25 3C14.5066 3 6 11.5066 6 22C6 32.4934 14.5066 41 25 41C35.4934 41 44 32.4934 44 22Z" fill="white" fill-opacity="0.34"/>
</g>
<path d="M28.9132 24.7963C28.1864 24.7957 27.481 25.0426 26.9132 25.4963L23.4792 23.3513C23.5815 22.8902 23.5815 22.4123 23.4792 21.9513L26.9112 19.8113C27.5035 20.282 28.2431 20.5282 28.9994 20.5065C29.7556 20.4847 30.4798 20.1964 31.0441 19.6924C31.6084 19.1884 31.9764 18.5013 32.0831 17.7523C32.1898 17.0033 32.0283 16.2407 31.6273 15.5992C31.2262 14.9577 30.6113 14.4785 29.8912 14.2465C29.1711 14.0144 28.3922 14.0443 27.692 14.3308C26.9918 14.6174 26.4154 15.1422 26.0647 15.8126C25.714 16.4829 25.6114 17.2557 25.7752 17.9943L22.3432 20.1393C21.8701 19.7626 21.3003 19.5271 20.6993 19.4598C20.0983 19.3924 19.4905 19.496 18.9457 19.7587C18.401 20.0213 17.9414 20.4323 17.6197 20.9444C17.2981 21.4565 17.1274 22.049 17.1274 22.6538C17.1274 23.2585 17.2981 23.851 17.6197 24.3632C17.9414 24.8753 18.401 25.2863 18.9457 25.5489C19.4905 25.8115 20.0983 25.9151 20.6993 25.8478C21.3003 25.7805 21.8701 25.5449 22.3432 25.1683L25.7742 27.3133C25.6294 27.9633 25.6901 28.6422 25.9477 29.2562C26.2053 29.8702 26.6473 30.3891 27.2125 30.7412C27.7778 31.0933 28.4384 31.2611 29.1031 31.2216C29.7678 31.1821 30.4039 30.9371 30.9234 30.5206C31.443 30.104 31.8203 29.5364 32.0034 28.8962C32.1865 28.2559 32.1662 27.5746 31.9455 26.9464C31.7247 26.3182 31.3143 25.774 30.771 25.389C30.2276 25.004 29.5781 24.7973 28.9122 24.7973L28.9132 24.7963Z" fill="white"/>
<defs>
<filter id="filter0_d_5429_23871" x="0" y="0" width="50" height="50" filterUnits="userSpaceOnUse" color-interpolation-filters="sRGB">
<feFlood flood-opacity="0" result="BackgroundImageFix"/>
<feColorMatrix in="SourceAlpha" type="matrix" values="0 0 0 0 0 0 0 0 0 0 0 0 0 0 0 0 0 0 127 0" result="hardAlpha"/>
<feOffset dy="3"/>
<feGaussianBlur stdDeviation="3"/>
<feColorMatrix type="matrix" values="0 0 0 0 0 0 0 0 0 0 0 0 0 0 0 0 0 0 0.161 0"/>
<feBlend mode="normal" in2="BackgroundImageFix" result="effect1_dropShadow_5429_23871"/>
<feBlend mode="normal" in="SourceGraphic" in2="effect1_dropShadow_5429_23871" result="shape"/>
</filter>
</defs>
</svg>
