<svg width="97" height="8" viewBox="0 0 97 8" fill="none" xmlns="http://www.w3.org/2000/svg">
<mask id="mask0_5429_23856" style="mask-type:luminance" maskUnits="userSpaceOnUse" x="0" y="0" width="97" height="8">
<path d="M96.9495 0H0.27832V7.095H96.9495V0Z" fill="white"/>
</mask>
<g mask="url(#mask0_5429_23856)">
<g opacity="0.4">
<path d="M14.0885 0H3.04035C1.51492 0 0.27832 1.05885 0.27832 2.365C0.27832 3.67115 1.51492 4.73 3.04035 4.73H14.0885C15.6139 4.73 16.8505 3.67115 16.8505 2.365C16.8505 1.05885 15.6139 0 14.0885 0Z" fill="white"/>
<path d="M33.422 0H22.3739C20.8484 0 19.6118 1.05885 19.6118 2.365C19.6118 3.67115 20.8484 4.73 22.3739 4.73H33.422C34.9474 4.73 36.184 3.67115 36.184 2.365C36.184 1.05885 34.9474 0 33.422 0Z" fill="white"/>
<path d="M52.756 0H41.7078C40.1824 0 38.9458 1.05885 38.9458 2.365C38.9458 3.67115 40.1824 4.73 41.7078 4.73H52.756C54.2814 4.73 55.518 3.67115 55.518 2.365C55.518 1.05885 54.2814 0 52.756 0Z" fill="white"/>
<path d="M72.09 0H61.0418C59.5164 0 58.2798 1.05885 58.2798 2.365C58.2798 3.67115 59.5164 4.73 61.0418 4.73H72.09C73.6154 4.73 74.852 3.67115 74.852 2.365C74.852 1.05885 73.6154 0 72.09 0Z" fill="white"/>
<path d="M91.4249 0H80.3768C78.8514 0 77.6147 1.05885 77.6147 2.365C77.6147 3.67115 78.8514 4.73 80.3768 4.73H91.4249C92.9503 4.73 94.1869 3.67115 94.1869 2.365C94.1869 1.05885 92.9503 0 91.4249 0Z" fill="white"/>
</g>
</g>
</svg>
